<?xml version="1.0" encoding="UTF-8" standalone="no"?>
<!-- Created with Inkscape (http://www.inkscape.org/) -->

<svg
   width="81.999634mm"
   height="82.336586mm"
   viewBox="0 0 81.999634 82.336586"
   version="1.1"
   id="svg5"
   sodipodi:docname="icon.svg"
   inkscape:version="1.2.2 (732a01da63, 2022-12-09, custom)"
   xmlns:inkscape="http://www.inkscape.org/namespaces/inkscape"
   xmlns:sodipodi="http://sodipodi.sourceforge.net/DTD/sodipodi-0.dtd"
   xmlns="http://www.w3.org/2000/svg"
   xmlns:svg="http://www.w3.org/2000/svg">
  <sodipodi:namedview
     id="namedview7"
     pagecolor="#ffffff"
     bordercolor="#000000"
     borderopacity="0.25"
     inkscape:showpageshadow="2"
     inkscape:pageopacity="0.0"
     inkscape:pagecheckerboard="0"
     inkscape:deskcolor="#d1d1d1"
     inkscape:document-units="mm"
     showgrid="false"
     inkscape:zoom="1.979123"
     inkscape:cx="98.52849"
     inkscape:cy="140.97153"
     inkscape:window-width="1920"
     inkscape:window-height="1019"
     inkscape:window-x="1200"
     inkscape:window-y="335"
     inkscape:window-maximized="1"
     inkscape:current-layer="layer1" />
  <defs
     id="defs2">
    <inkscape:path-effect
       effect="bspline"
       id="path-effect549"
       is_visible="true"
       lpeversion="1"
       weight="10.3333"
       steps="2"
       helper_size="0"
       apply_no_weight="true"
       apply_with_weight="true"
       only_selected="false" />
    <inkscape:path-effect
       effect="bspline"
       id="path-effect547"
       is_visible="true"
       lpeversion="1"
       weight="10.3333"
       steps="2"
       helper_size="0"
       apply_no_weight="true"
       apply_with_weight="true"
       only_selected="false" />
    <inkscape:path-effect
       effect="bspline"
       id="path-effect545"
       is_visible="true"
       lpeversion="1"
       weight="10.3333"
       steps="2"
       helper_size="0"
       apply_no_weight="true"
       apply_with_weight="true"
       only_selected="false" />
    <inkscape:path-effect
       effect="bspline"
       id="path-effect381"
       is_visible="true"
       lpeversion="1"
       weight="10"
       steps="2"
       helper_size="0"
       apply_no_weight="true"
       apply_with_weight="true"
       only_selected="false" />
    <inkscape:path-effect
       effect="fillet_chamfer"
       id="path-effect379"
       is_visible="true"
       lpeversion="1"
       nodesatellites_param="F,0,0,1,0,0.079375,0,1 @ F,0,0,1,0,0.079375,0,1 @ F,0,0,1,0,0.079375,0,1 @ F,0,0,1,0,0.079375,0,1 @ F,0,0,1,0,0.079375,0,1 @ F,0,0,1,0,0.079375,0,1 | F,0,0,1,0,0.079375,0,1 @ F,0,0,1,0,0.079375,0,1 @ F,0,0,1,0,0.079375,0,1 @ F,0,0,1,0,0.079375,0,1 @ F,0,0,1,0,0.079375,0,1 @ F,0,0,1,0,0.079375,0,1"
       unit="px"
       method="auto"
       mode="F"
       radius="0.3"
       chamfer_steps="1"
       flexible="false"
       use_knot_distance="true"
       apply_no_radius="true"
       apply_with_radius="true"
       only_selected="false"
       hide_knots="false" />
    <inkscape:path-effect
       effect="fillet_chamfer"
       id="path-effect377"
       is_visible="true"
       lpeversion="1"
       nodesatellites_param="F,0,0,1,0,0.079375,0,1 @ F,0,0,1,0,0.079375,0,1 @ F,0,0,1,0,0.079375,0,1 @ F,0,0,1,0,0.079375,0,1 @ F,0,0,1,0,0.079375,0,1 @ F,0,0,1,0,0.079375,0,1 | F,0,0,1,0,0.079375,0,1 @ F,0,0,1,0,0.079375,0,1 @ F,0,0,1,0,0.079375,0,1 @ F,0,0,1,0,0.079375,0,1 @ F,0,0,1,0,0.079375,0,1 @ F,0,0,1,0,0.079375,0,1"
       unit="px"
       method="auto"
       mode="F"
       radius="0.3"
       chamfer_steps="1"
       flexible="false"
       use_knot_distance="true"
       apply_no_radius="true"
       apply_with_radius="true"
       only_selected="false"
       hide_knots="false" />
    <inkscape:path-effect
       effect="fillet_chamfer"
       id="path-effect375"
       is_visible="true"
       lpeversion="1"
       nodesatellites_param="F,0,0,1,0,0.079375,0,1 @ F,0,0,1,0,0.079375,0,1 @ F,0,0,1,0,0.079375,0,1 @ F,0,0,1,0,0.079375,0,1 @ F,0,0,1,0,0.079375,0,1 @ F,0,0,1,0,0.079375,0,1 | F,0,0,1,0,0.079375,0,1 @ F,0,0,1,0,0.079375,0,1 @ F,0,0,1,0,0.079375,0,1 @ F,0,0,1,0,0.079375,0,1 @ F,0,0,1,0,0.079375,0,1 @ F,0,0,1,0,0.079375,0,1"
       unit="px"
       method="auto"
       mode="F"
       radius="0.3"
       chamfer_steps="1"
       flexible="false"
       use_knot_distance="true"
       apply_no_radius="true"
       apply_with_radius="true"
       only_selected="false"
       hide_knots="false" />
  </defs>
  <g
     inkscape:label="Layer 1"
     inkscape:groupmode="layer"
     id="layer1"
     style="fill:#aa8800"
     transform="translate(-30.000243,-33.999988)">
    <path
       id="path1993"
       style="font-size:3.175px;white-space:pre;inline-size:3.28255;fill:#000000;stroke-width:0.264583;fill-opacity:1"
       d="m 51.646438,71.822255 c -0.126888,0.06226 -0.711577,0.3994 -0.82883,0.477908 -0.117253,0.07851 -0.14783,0.1315 -0.157305,0.272786 -0.0095,0.141286 -0.0095,0.817242 -3.6e-5,0.958157 0.0094,0.140915 0.04006,0.194149 0.157573,0.2729 0.117518,0.07875 0.701805,0.415659 0.828563,0.477821 0.126759,0.06216 0.188491,0.06227 0.315491,3.7e-5 0.126999,-0.06224 0.71169,-0.399377 0.828867,-0.4779 0.117176,-0.07852 0.14791,-0.131958 0.157396,-0.273059 0.0095,-0.141102 0.0095,-0.817057 -3.6e-5,-0.958176 -0.0095,-0.141119 -0.04048,-0.1943 -0.157795,-0.27286 -0.117319,-0.07856 -0.701607,-0.415469 -0.828607,-0.477733 -0.126999,-0.06226 -0.188393,-0.06214 -0.315281,1.19e-4 z m 0.303554,0.166145 c 0.115295,0.05553 0.602287,0.336329 0.707872,0.408125 0.105586,0.0718 0.136546,0.125051 0.146084,0.252771 0.0095,0.12772 0.0095,0.691204 5.5e-5,0.818597 -0.0095,0.127394 -0.04036,0.180836 -0.146073,0.252777 -0.105717,0.07194 -0.593135,0.352998 -0.708137,0.40835 -0.115001,0.05535 -0.17661,0.05514 -0.291701,-3.13e-4 -0.115091,-0.05545 -0.602104,-0.336271 -0.70785,-0.408244 -0.105746,-0.07197 -0.136337,-0.125283 -0.145785,-0.252833 -0.0094,-0.127549 -0.0095,-0.691032 2.2e-5,-0.818578 0.0095,-0.127546 0.04017,-0.180497 0.145959,-0.252411 0.105788,-0.07191 0.593221,-0.35296 0.708121,-0.408344 0.114901,-0.05539 0.176137,-0.05542 0.291433,1.03e-4 z"
       transform="matrix(17.339768,0,0,17.339768,-848.26816,-1173.6094)"
       inkscape:path-effect="#path-effect379;#path-effect549"
       inkscape:original-d="m 51.803935,71.720063 c -0.118185,0.06972 -1.033222,0.597345 -1.153407,0.665068 10e-4,0.13877 10e-4,1.196494 0,1.333264 0.120185,0.06972 1.035222,0.597344 1.153407,0.665067 0.120185,-0.06772 1.035222,-0.595344 1.153407,-0.665067 0.001,-0.13677 0.001,-1.194494 0,-1.333264 -0.118185,-0.06772 -1.033222,-0.595345 -1.153407,-0.665068 z m 0,0.173032 c 0.105286,0.06113 0.905938,0.522788 1.009224,0.581919 10e-4,0.121549 10e-4,1.047061 0,1.16661 -0.103286,0.06114 -0.903938,0.522814 -1.009224,0.581949 -0.103289,-0.05913 -0.903965,-0.520814 -1.009254,-0.581949 0.001,-0.119549 0.001,-1.045061 0,-1.16661 0.105289,-0.05913 0.905965,-0.520788 1.009254,-0.581919 z"
       inkscape:export-filename="../c65782f3/iconsmooth.svg"
       inkscape:export-xdpi="96"
       inkscape:export-ydpi="96" />
    <path
       id="path1990"
       style="font-size:3.175px;white-space:pre;inline-size:3.28255;display:inline;fill:#000000;stroke-width:0.264583;fill-opacity:1"
       d="m 51.646438,71.822273 c -0.126888,0.06226 -0.711577,0.399399 -0.82883,0.477907 -0.117253,0.07851 -0.14783,0.1315 -0.157305,0.272784 -0.0095,0.141283 -0.0095,0.817218 -3.6e-5,0.958132 0.0094,0.140913 0.04006,0.194148 0.157572,0.272902 0.117518,0.07875 0.701808,0.415678 0.828565,0.477842 0.126758,0.06216 0.188489,0.06228 0.315488,3.6e-5 0.127,-0.06224 0.711691,-0.399394 0.828868,-0.477921 0.117177,-0.07853 0.147911,-0.131962 0.157397,-0.273061 0.0095,-0.141099 0.0095,-0.817034 -3.6e-5,-0.958151 -0.0095,-0.141116 -0.04048,-0.194297 -0.157795,-0.272857 -0.117319,-0.07856 -0.701607,-0.415468 -0.828607,-0.477733 -0.126999,-0.06226 -0.188393,-0.06214 -0.315281,1.2e-4 z m 0.303554,0.157263 c 0.115295,0.05553 0.602287,0.336329 0.707872,0.408125 0.105586,0.0718 0.136546,0.125051 0.146084,0.252771 0.0095,0.12772 0.0095,0.691204 5.5e-5,0.818597 -0.0095,0.127393 -0.04036,0.180834 -0.146073,0.252775 -0.105717,0.07194 -0.593132,0.352998 -0.708135,0.40835 -0.115002,0.05535 -0.176612,0.05514 -0.291703,-3.11e-4 -0.115091,-0.05545 -0.602104,-0.336271 -0.70785,-0.408244 -0.105746,-0.07197 -0.136337,-0.125283 -0.145785,-0.252833 -0.0094,-0.127549 -0.0095,-0.691032 2.2e-5,-0.818578 0.0095,-0.127546 0.04017,-0.180497 0.145959,-0.252411 0.105788,-0.07191 0.593221,-0.35296 0.708121,-0.408344 0.114901,-0.05539 0.176137,-0.05542 0.291433,1.03e-4 z"
       transform="matrix(17.339768,0,0,17.339768,-806.26814,-1173.4557)"
       inkscape:path-effect="#path-effect377;#path-effect547"
       inkscape:original-d="m 51.803935,71.720081 c -0.118185,0.06972 -1.033222,0.597344 -1.153407,0.665067 10e-4,0.138767 10e-4,1.196467 0,1.333234 0.120185,0.06973 1.035222,0.597371 1.153407,0.665097 0.120185,-0.06773 1.035222,-0.595371 1.153407,-0.665097 0.001,-0.136767 0.001,-1.194467 0,-1.333234 -0.118185,-0.06772 -1.033222,-0.595344 -1.153407,-0.665067 z m 0,0.16415 c 0.105286,0.06113 0.905938,0.522788 1.009224,0.581919 10e-4,0.121549 10e-4,1.047061 0,1.16661 -0.103286,0.06113 -0.903938,0.522814 -1.009224,0.581949 -0.103289,-0.05913 -0.903965,-0.520814 -1.009254,-0.581949 0.001,-0.119549 0.001,-1.045061 0,-1.16661 0.105289,-0.05913 0.905965,-0.520788 1.009254,-0.581919 z" />
    <path
       id="path371"
       style="font-size:3.175px;white-space:pre;inline-size:3.28255;display:inline;fill:#000000;stroke-width:0.264583;fill-opacity:1"
       d="m 51.646422,71.822257 c -0.126888,0.06226 -0.711577,0.3994 -0.82883,0.477908 -0.117253,0.07851 -0.14783,0.1315 -0.157305,0.272786 -0.0095,0.141286 -0.0095,0.817241 -3.6e-5,0.958156 0.0094,0.140915 0.04006,0.194149 0.157573,0.2729 0.117518,0.07875 0.701805,0.41566 0.828563,0.477822 0.126759,0.06216 0.188491,0.06227 0.315494,3.8e-5 0.127002,-0.06224 0.711712,-0.39938 0.828891,-0.477903 0.117179,-0.07852 0.147913,-0.131957 0.157399,-0.273058 0.0095,-0.141102 0.0095,-0.817056 -3.6e-5,-0.958175 -0.0095,-0.141119 -0.04048,-0.1943 -0.157798,-0.272859 -0.117321,-0.07856 -0.701628,-0.415471 -0.828631,-0.477735 -0.127002,-0.06226 -0.188395,-0.06214 -0.315284,1.2e-4 z m 0.303556,0.166118 c 0.115297,0.05553 0.60231,0.33635 0.707898,0.408149 0.105588,0.0718 0.136548,0.125054 0.146086,0.252774 0.0095,0.12772 0.0095,0.691204 5.5e-5,0.818597 -0.0095,0.127393 -0.04036,0.180833 -0.146077,0.25277 -0.10572,0.07194 -0.593152,0.352982 -0.708157,0.408331 -0.115005,0.05535 -0.176615,0.05514 -0.291704,-3.14e-4 -0.115089,-0.05545 -0.602081,-0.33625 -0.707825,-0.408221 -0.105744,-0.07197 -0.136334,-0.12528 -0.145783,-0.252829 -0.0094,-0.127549 -0.0095,-0.691032 2.2e-5,-0.818578 0.0095,-0.127546 0.04017,-0.180498 0.145956,-0.252415 0.105784,-0.07192 0.593202,-0.352978 0.708099,-0.408366 0.114897,-0.05539 0.176133,-0.05543 0.29143,1.02e-4 z"
       transform="matrix(17.339768,0,0,17.339768,-827.26814,-1209.6093)"
       sodipodi:nodetypes="cccccccccccccc"
       inkscape:path-effect="#path-effect375;#path-effect545"
       inkscape:original-d="m 51.803919,71.720065 c -0.118185,0.06972 -1.033222,0.597345 -1.153407,0.665068 10e-4,0.13877 10e-4,1.196493 0,1.333263 0.120185,0.06972 1.035222,0.597345 1.153407,0.665068 0.120188,-0.06772 1.035249,-0.595345 1.153437,-0.665068 0.001,-0.13677 0.001,-1.194493 0,-1.333263 -0.118188,-0.06772 -1.033249,-0.595345 -1.153437,-0.665068 z m 0,0.173002 c 0.105289,0.06113 0.905965,0.522814 1.009254,0.581949 10e-4,0.121549 10e-4,1.047061 0,1.16661 -0.103289,0.06113 -0.903965,0.522788 -1.009254,0.581919 -0.103286,-0.05913 -0.903938,-0.520788 -1.009224,-0.581919 0.001,-0.119549 0.001,-1.045061 0,-1.16661 0.105286,-0.05913 0.905938,-0.520814 1.009224,-0.581949 z" />
  </g>
</svg>
